<?xml version="1.0" standalone="no"?>
<!DOCTYPE svg PUBLIC "-//W3C//DTD SVG 20010904//EN"
 "http://www.w3.org/TR/2001/REC-SVG-20010904/DTD/svg10.dtd">
<svg version="1.0" xmlns="http://www.w3.org/2000/svg"
 width="70.000000pt" height="65.000000pt" viewBox="0 0 70.000000 65.000000"
 preserveAspectRatio="xMidYMid meet">

<g transform="translate(0.000000,65.000000) scale(0.100000,-0.100000)"
fill="#000000" stroke="none">
<path style="fill:#c70101" d="M92 488 c-39 -41 -72 -80 -72 -89 0 -8 19 -33 43 -56 68 -66 284
-241 318 -259 50 -25 126 -28 218 -9 l83 18 -5 41 c-7 47 -36 76 -76 76 -61 1
-106 34 -166 124 -68 102 -86 115 -115 86 -20 -20 -23 -20 -46 -6 -30 20 -56
59 -69 105 -6 20 -17 37 -25 39 -8 1 -48 -30 -88 -70z m103 15 c5 -27 24 -55
65 -98 32 -33 78 -81 102 -106 35 -37 57 -50 123 -72 44 -14 97 -29 118 -32
20 -4 37 -12 37 -17 0 -7 -32 -9 -88 -6 -103 5 -156 26 -232 95 -77 69 -178
227 -166 259 11 27 34 14 41 -23z m-19 -73 c52 -100 149 -201 230 -241 58 -29
73 -32 159 -32 68 0 92 -4 85 -11 -6 -6 -54 -11 -113 -11 -120 0 -136 7 -283
129 -84 69 -92 79 -98 118 -4 24 -13 56 -21 72 -17 33 -19 46 -6 46 6 0 27
-32 47 -70z m-50 4 c8 -20 14 -44 12 -55 -3 -16 -8 -14 -43 15 -40 34 -40 34
-21 55 26 29 35 27 52 -15z m-66 -23 c0 -17 301 -253 349 -274 43 -19 114 -24
221 -14 40 3 36 -17 -6 -30 -63 -19 -194 -16 -235 5 -34 17 -320 252 -347 285
-8 9 -11 21 -7 27 8 13 25 13 25 1z m301 -6 c0 -5 -9 -11 -21 -13 -20 -3 -27
8 -13 22 10 9 34 3 34 -9z m22 -32 c-18 -7 -16 -23 2 -23 9 0 12 -6 9 -15 -5
-11 -2 -13 12 -8 13 5 16 3 11 -10 -4 -11 -1 -17 8 -17 14 0 48 -40 41 -48
-17 -16 -146 90 -146 120 0 4 17 8 38 7 20 0 31 -3 25 -6z"/>
</g>
</svg>
